<?xml version="1.0" encoding="UTF-8" standalone="no"?>
<!-- Created with Inkscape (http://www.inkscape.org/) -->

<svg
   version="1.1"
   id="svg178"
   width="560.05975"
   height="65.933014"
   viewBox="0 0 560.05976 65.933014"
   xmlns="http://www.w3.org/2000/svg"
   xmlns:svg="http://www.w3.org/2000/svg">
  <defs
     id="defs182" />
  <g
     id="g184"
     transform="translate(-64.916168,-332.04965)">
    <path
       id="path1057"
       style="opacity:1;fill:#ffffff;stroke:#ffffff;stroke-width:0.510236;stroke-linecap:round"
       d="m 65.171286,332.30539 v 14.05078 h 73.476564 l -3.46289,0.0215 0.0293,11.57031 -70.042974,-0.17187 v 14.05078 h 0.0371 v 11.67578 h -0.0371 v 14.04883 h 85.142584 v -13.83985 h -0.0156 v -11.88476 h 0.0156 v -13.8418 h -0.0156 v -11.62891 h 0.0156 v -13.84179 z m 13.79687,39.52149 h 56.281254 l 0.0293,11.84765 -56.310554,-0.13867 z" />
    <path
       id="path1057-4"
       style="fill:#ffffff;stroke:#ffffff;stroke-width:0.510236;stroke-linecap:round"
       d="m 245.45711,397.67494 v -14.05078 h -73.47656 l 3.46289,-0.0215 -0.0293,-11.57031 70.04298,0.17187 v -14.05078 h -0.0371 v -11.67577 h 0.0371 v -14.04884 h -85.14258 v 13.83986 h 0.0156 v 11.88476 h -0.0156 v 13.8418 h 0.0156 v 11.62891 h -0.0156 v 13.84179 z m -13.79687,-39.52149 h -56.28125 l -0.0293,-11.84765 56.31055,0.13867 z" />
    <path
       id="path1057-4-5"
       style="fill:#ffffff;stroke:#ffffff;stroke-width:0.510236;stroke-linecap:round"
       d="m 529.85885,397.72693 v -14.05078 h -73.47656 l 3.46289,-0.0215 -0.0293,-11.57031 70.04298,0.17187 v -14.05078 h -0.0371 v -11.67577 h 0.0371 v -14.04884 h -85.14258 v 13.83986 h 0.0156 v 11.88476 h -0.0156 v 13.8418 h 0.0156 v 11.62891 h -0.0156 v 13.84179 z m -13.79687,-39.52149 h -56.28125 l -0.0293,-11.84765 56.31055,0.13867 z" />
    <path
       id="path4964-7"
       style="fill:#ffffff;stroke:#ffffff;stroke-width:0.508167;stroke-linecap:round"
       d="m 348.75946,332.51057 v 64.92383 h 15.52148 l -0.0703,-24.88086 54.26758,0.35547 v 24.65429 h 15.51953 l -0.0684,-24.55273 h 0.084 v -14.49805 h -0.12303 l -0.0723,-25.875 h -15.33984 v 25.875 h -54.30665 l -0.0723,-26.00195 z" />
    <path
       id="path4964-5"
       style="fill:#ffffff;stroke:#ffffff;stroke-width:0.44357;stroke-linecap:round"
       d="m 289.12983,397.51266 h 14.56403 v -64.38937 h -14.00387 z m 50.53511,-50.13095 v -14.49738 h -85.59031 v 13.93979 z" />
    <path
       style="opacity:1;fill:#ffffff;stroke:#ffffff;stroke-width:1.48633;stroke-linecap:round"
       d="m 554.40835,396.92067 h -14.09011 v -63.58904 h 14.08075 z"
       id="path5164" />
    <path
       style="fill:#ffffff;stroke:#ffffff;stroke-width:1.56166;stroke-linecap:round"
       d="m 553.61958,347.38814 v -14.01479 h 70.57553 v 14.00548 z"
       id="path5164-4" />
  </g>
</svg>
